<svg width="344" height="321" viewBox="0 0 344 321" fill="none" xmlns="http://www.w3.org/2000/svg">
<path d="M173.917 10.6597H11.4345V117.754H173.917V10.6597Z" fill="#F5F5F5"/>
<path d="M36.8847 36.2473C36.8847 36.2473 34.6316 34.9881 33.1685 36.5329C32.6564 37.0819 32.5248 38.883 34.5292 39.2417C34.5292 39.2417 38.8672 39.0074 40.8424 38.6487C42.8175 38.2899 47.3092 36.3059 47.3092 36.3059L49.6428 31.1005C49.6428 31.1005 49.9427 28.6406 50.2427 28.582C50.5426 28.5234 51.457 31.1005 51.457 31.1005L56.49 32.5648L57.0241 33.5824L52.9201 35.2516C52.9201 35.2516 53.52 41.7236 52.9786 42.8584C52.4161 43.8015 51.7102 44.6512 50.8864 45.3769L51.1205 54.7846C51.1205 54.7846 52.0203 54.4259 52.0788 55.0848H49.694C49.694 55.0848 48.7357 49.2278 47.3604 48.7886L47.7188 46.336L38.2893 45.5379C38.2893 45.5379 38.9477 47.7343 36.2556 49.55C34.8308 50.4673 33.5322 51.5675 32.3931 52.8226V54.6162C32.3931 54.6162 33.1758 54.9164 33.2344 55.5753H30.3594C30.3594 55.5753 30.7179 50.6042 30.3594 49.7623C30.3594 49.7623 33.8854 46.1602 33.4099 41.709C33.4099 41.709 29.4011 40.6913 30.3594 36.7964C31.3177 32.9015 35.8094 32.8356 36.8847 36.2473Z" fill="#E0E0E0"/>
<path d="M37.4846 66.235C37.4846 66.235 36.0727 65.459 35.1729 66.4181C35.0592 66.5753 34.9908 66.7607 34.975 66.9541C34.9592 67.1476 34.9967 67.3417 35.0834 67.5153C35.1702 67.6889 35.3028 67.8353 35.4669 67.9388C35.631 68.0422 35.8203 68.0986 36.0142 68.1019C36.0142 68.1019 38.7136 67.9482 39.9353 67.7285C41.3113 67.3423 42.6562 66.8529 43.9587 66.2643L45.4218 63.0283C45.4218 63.0283 45.6047 61.5055 45.7949 61.4616C45.9851 61.4177 46.5264 63.0283 46.5264 63.0283L49.6574 63.9215L49.9939 64.5365L47.4701 65.5834C47.4701 65.5834 47.8359 69.6028 47.4701 70.3129C47.1185 70.8965 46.6793 71.4224 46.168 71.8724L46.3143 77.7293C46.3143 77.7293 46.8703 77.5024 46.9068 77.9124H45.4438C45.4438 77.9124 44.8512 74.2517 43.9807 74.0028L44.2001 72.48L38.3478 71.9895C38.3478 71.9895 38.7575 73.3732 37.0823 74.486C36.1918 75.0499 35.378 75.7267 34.6609 76.4994V77.6122C34.6609 77.6122 35.1437 77.8025 35.1876 78.2125H33.4319C33.4319 78.2125 33.6513 75.123 33.4319 74.5958C33.4319 74.5958 35.6265 72.3555 35.3266 69.6101C35.3266 69.6101 32.832 68.9805 33.4319 66.5571C34.0317 64.1338 36.8262 64.1119 37.4846 66.235Z" fill="#E0E0E0"/>
<path d="M36.4604 91.1271C36.4604 91.1271 35.3924 90.5414 34.7194 91.2662C34.6335 91.3847 34.5818 91.5245 34.57 91.6704C34.5582 91.8163 34.5867 91.9626 34.6524 92.0934C34.7181 92.2241 34.8185 92.3343 34.9426 92.4118C35.0666 92.4893 35.2096 92.5312 35.3558 92.5328C35.3558 92.5328 37.3822 92.4157 38.282 92.2473C39.3152 91.9606 40.3251 91.5959 41.3032 91.1564L42.4006 88.7185C42.4006 88.7185 42.5395 87.569 42.6785 87.5397C42.8175 87.5105 43.2418 88.7185 43.2418 88.7185L45.6047 89.4286L45.8534 89.9045L43.9514 90.6879C43.9514 90.6879 44.2294 93.7188 43.9514 94.2533C43.6879 94.6927 43.3571 95.0879 42.9712 95.4247L43.0882 99.8174C43.0882 99.8174 43.5052 99.649 43.5344 99.9565H42.4591C42.4591 99.9565 42.0055 97.2111 41.3618 97.028L41.53 95.8786L37.1408 95.5125C37.2058 95.8868 37.1484 96.2721 36.977 96.6111C36.8057 96.9501 36.5296 97.2247 36.1898 97.3941C35.5197 97.8154 34.9073 98.3224 34.3682 98.9023V99.6783C34.3682 99.6783 34.7267 99.8247 34.756 100.132H33.4026C33.4878 99.2264 33.4878 98.3146 33.4026 97.4087C33.8811 96.9096 34.2566 96.321 34.5076 95.6766C34.7587 95.0321 34.8803 94.3445 34.8657 93.653C34.6168 93.602 34.3806 93.5015 34.1713 93.3573C33.962 93.2132 33.7838 93.0284 33.6473 92.8139C33.5108 92.5994 33.4188 92.3597 33.3767 92.1089C33.3347 91.8581 33.3435 91.6014 33.4026 91.3541C33.8562 89.5604 35.9557 89.5311 36.4604 91.1271Z" fill="#E0E0E0"/>
<path d="M149.359 40.457C149.359 40.5595 132.468 40.6474 111.626 40.6474C90.7846 40.6474 73.8934 40.5595 73.8934 40.457C73.8934 40.3545 90.7846 40.2667 111.626 40.2667C132.468 40.2667 149.359 40.3765 149.359 40.457Z" fill="#E0E0E0"/>
<path d="M149.359 43.3709C149.359 43.4734 132.468 43.5612 111.626 43.5612C90.7846 43.5612 73.8934 43.4734 73.8934 43.3709C73.8934 43.2684 90.7846 43.1805 111.626 43.1805C132.468 43.1805 149.359 43.261 149.359 43.3709Z" fill="#E0E0E0"/>
<path d="M149.359 46.2774C149.359 46.3872 132.468 46.4677 111.626 46.4677C90.7846 46.4677 73.8934 46.3872 73.8934 46.2774C73.8934 46.1676 90.7846 46.087 111.626 46.087C132.468 46.087 149.359 46.1749 149.359 46.2774Z" fill="#E0E0E0"/>
<path d="M149.359 49.1619C149.359 49.2718 132.468 49.3523 111.626 49.3523C90.7846 49.3523 73.8934 49.2718 73.8934 49.1619C73.8934 49.0521 90.7846 48.9716 111.626 48.9716C132.468 48.9716 149.359 49.0887 149.359 49.1619Z" fill="#E0E0E0"/>
<path d="M149.359 65.6932C149.359 65.8031 132.468 65.8836 111.626 65.8836C90.7846 65.8836 73.8934 65.8031 73.8934 65.6932C73.8934 65.5834 90.7846 65.5029 111.626 65.5029C132.468 65.5029 149.359 65.5908 149.359 65.6932Z" fill="#E0E0E0"/>
<path d="M149.359 68.6071C149.359 68.7169 132.468 68.7974 111.626 68.7974C90.7846 68.7974 73.8934 68.7169 73.8934 68.6071C73.8934 68.4973 90.7846 68.4167 111.626 68.4167C132.468 68.4167 149.359 68.5046 149.359 68.6071Z" fill="#E0E0E0"/>
<path d="M149.359 71.5209C149.359 71.6234 132.468 71.7113 111.626 71.7113C90.7846 71.7113 73.8934 71.6234 73.8934 71.5209C73.8934 71.4184 90.7846 71.3306 111.626 71.3306C132.468 71.3306 149.359 71.4184 149.359 71.5209Z" fill="#E0E0E0"/>
<path d="M149.359 74.4348C149.359 74.5373 132.468 74.6251 111.626 74.6251C90.7846 74.6251 73.8934 74.5373 73.8934 74.4348C73.8934 74.3323 90.7846 74.2444 111.626 74.2444C132.468 74.2444 149.359 74.325 149.359 74.4348Z" fill="#E0E0E0"/>
<path d="M149.359 90.9368C149.359 91.0393 132.468 91.1271 111.626 91.1271C90.7846 91.1271 73.8934 91.0393 73.8934 90.9368C73.8934 90.8343 90.7846 90.7464 111.626 90.7464C132.468 90.7464 149.359 90.8343 149.359 90.9368Z" fill="#E0E0E0"/>
<path d="M149.359 93.8213C149.359 93.9238 132.468 94.0117 111.626 94.0117C90.7846 94.0117 73.8934 93.9238 73.8934 93.8213C73.8934 93.7188 90.7846 93.631 111.626 93.631C132.468 93.631 149.359 93.7408 149.359 93.8213Z" fill="#E0E0E0"/>
<path d="M149.359 96.7498C149.359 96.8523 132.468 96.9402 111.626 96.9402C90.7846 96.9402 73.8934 96.8523 73.8934 96.7498C73.8934 96.6473 90.7846 96.5595 111.626 96.5595C132.468 96.5595 149.359 96.6547 149.359 96.7498Z" fill="#E0E0E0"/>
<path d="M149.359 99.6783C149.359 99.7881 132.468 99.8687 111.626 99.8687C90.7846 99.8687 73.8934 99.7881 73.8934 99.6783C73.8934 99.5685 90.7846 99.488 111.626 99.488C132.468 99.488 149.359 99.5685 149.359 99.6783Z" fill="#E0E0E0"/>
<path d="M142.673 25.9171C142.673 26.9714 125.906 27.8279 105.233 27.8279C84.5592 27.8279 67.785 26.9714 67.785 25.9171C67.785 24.8628 84.5446 24.0136 105.233 24.0136C125.921 24.0136 142.673 24.8628 142.673 25.9171Z" fill="#E0E0E0"/>
<path d="M266.186 8.24369H264.13V4.3488C264.155 3.77816 263.956 3.22048 263.576 2.79404C263.197 2.3676 262.666 2.10595 262.097 2.06458H246.449C245.881 2.10776 245.352 2.37019 244.974 2.79643C244.596 3.22267 244.398 3.77934 244.423 4.3488V8.24369H242.389V4.3488C242.357 3.2313 242.769 2.14669 243.534 1.33187C244.299 0.517053 245.355 0.0382368 246.471 0H262.119C263.236 0.0363442 264.294 0.514335 265.061 1.32936C265.827 2.14439 266.24 3.23007 266.208 4.3488L266.186 8.24369Z" fill="#EBEBEB"/>
<path d="M287.927 8.24369H220.311C216.622 8.24369 213.632 11.2363 213.632 14.928V55.7437C213.632 59.4353 216.622 62.428 220.311 62.428H287.927C291.616 62.428 294.606 59.4353 294.606 55.7437V14.928C294.606 11.2363 291.616 8.24369 287.927 8.24369Z" fill="#EBEBEB"/>
<path d="M256.705 24.3943H251.848V46.1749H256.705V24.3943Z" fill="#F5F5F5"/>
<path d="M243.391 32.8576V37.7189H265.155V32.8576H243.391Z" fill="#F5F5F5"/>
<path d="M272.382 35.3395C272.382 35.3395 272.382 35.237 272.382 35.0466C272.382 34.8563 272.346 34.5488 272.316 34.1827C272.316 33.9924 272.316 33.7801 272.28 33.5531C272.243 33.3262 272.199 33.0699 272.155 32.821C272.074 32.1902 271.947 31.5663 271.775 30.9541C271.35 29.2599 270.669 27.6404 269.756 26.1514C267.362 22.1996 263.55 19.3121 259.1 18.0793C254.649 16.8464 249.896 17.3611 245.813 19.5184C245.05 19.9385 244.316 20.4106 243.618 20.9313C242.903 21.465 242.224 22.0446 241.584 22.6665C240.953 23.3188 240.366 24.0135 239.829 24.7457C238.714 26.2473 237.847 27.9183 237.261 29.6948C236.022 33.3734 236.022 37.3569 237.261 41.0354C237.843 42.8123 238.707 44.4835 239.821 45.9845C240.363 46.7175 240.952 47.4145 241.584 48.0711C242.224 48.6927 242.904 49.2723 243.618 49.8062C244.316 50.3269 245.05 50.799 245.813 51.2192C246.569 51.616 247.351 51.9609 248.154 52.2515C251.175 53.3524 254.436 53.6253 257.598 53.0422C260.106 52.5706 262.485 51.5733 264.581 50.116C266.676 48.6586 268.44 46.7741 269.756 44.5862C270.669 43.0971 271.35 41.4777 271.775 39.7835C271.947 39.1713 272.074 38.5473 272.155 37.9166C272.199 37.6384 272.251 37.3894 272.28 37.1844C272.309 36.9794 272.28 36.7452 272.316 36.5548C272.316 36.1888 272.368 35.9032 272.382 35.6909C272.397 35.4786 272.382 35.3981 272.382 35.3981C272.395 35.4953 272.395 35.5937 272.382 35.6909C272.382 35.9032 272.382 36.1888 272.382 36.5548C272.382 36.75 272.382 36.9624 272.382 37.1918C272.382 37.426 272.316 37.6823 272.28 37.9605C272.206 38.5974 272.089 39.2285 271.929 39.8494C271.519 41.5647 270.853 43.2084 269.953 44.7253C268.635 46.9579 266.858 48.8847 264.739 50.3778C262.62 51.871 260.208 52.8964 257.664 53.3863C254.449 54.0033 251.128 53.7506 248.044 52.6542C247.224 52.3601 246.424 52.0103 245.652 51.6072C244.869 51.1705 244.116 50.6813 243.399 50.143C242.669 49.5997 241.975 49.0104 241.321 48.3786C240.675 47.7117 240.073 47.0024 239.521 46.2554C238.38 44.7215 237.493 43.0132 236.895 41.1965C236.289 39.3276 235.971 37.3774 235.952 35.4127C235.975 33.446 236.293 31.4939 236.895 29.6216C237.497 27.8091 238.384 26.1039 239.521 24.57C240.074 23.8233 240.675 23.114 241.321 22.4468C241.95 21.7906 242.622 21.1767 243.333 20.6092C244.045 20.0668 244.795 19.5774 245.579 19.145C246.351 18.7419 247.15 18.3921 247.971 18.098C251.053 17.0019 254.371 16.7491 257.583 17.3659C260.129 17.8548 262.542 18.8798 264.662 20.373C266.782 21.8662 268.561 23.7935 269.88 26.0269C270.78 27.5438 271.445 29.1875 271.855 30.9028C272.016 31.5236 272.133 32.1547 272.207 32.7917C272.243 33.0699 272.287 33.3188 272.309 33.5238C272.331 33.7288 272.309 33.9704 272.309 34.1681C272.309 34.5268 272.309 34.8197 272.309 35.032C272.348 35.1306 272.372 35.2341 272.382 35.3395Z" fill="#F5F5F5"/>
<path d="M318.835 12.2337V4.04131H313.078V12.2337H307.284V59.0895H324.219V12.2337H318.835Z" fill="#EBEBEB"/>
<path d="M344 59.0968H204.305V66.2277H344V59.0968Z" fill="#E0E0E0"/>
<path d="M235.674 66.235H231.606V83.0958H235.674V66.235Z" fill="#E0E0E0"/>
<path d="M317.006 66.235H312.939V83.0958H317.006V66.235Z" fill="#E0E0E0"/>
<path d="M287.335 24.8409V18.8521H283.121V24.8409H278.886V59.0968H291.263V24.8409H287.335Z" fill="#FAFAFA"/>
<path d="M301.38 24.8409V18.8521H297.174V24.8409H292.939V59.0968H305.302V24.8409H301.38Z" fill="#F5F5F5"/>
<path d="M231.606 36.8403H209.367V59.0968H231.606V36.8403Z" fill="#E0E0E0"/>
<path d="M231.496 42.5729C231.496 42.7193 226.588 42.8364 220.523 42.8364C214.459 42.8364 209.55 42.7193 209.55 42.5729C209.55 42.4264 214.459 42.3166 220.523 42.3166C226.588 42.3166 231.496 42.4191 231.496 42.5729Z" fill="#EBEBEB"/>
<path d="M221.328 45.5013C221.328 45.5013 221.408 45.5013 221.555 45.5379C221.767 45.5964 221.967 45.6905 222.147 45.8162C222.804 46.3157 223.242 47.0504 223.369 47.8661C223.647 49.0632 223.439 50.3217 222.791 51.3656C222.382 51.987 221.773 52.4494 221.065 52.6761C220.309 52.8918 219.508 52.8918 218.753 52.6761C218.014 52.5135 217.334 52.1489 216.789 51.6229C216.244 51.0969 215.855 50.4301 215.666 49.6964C215.532 49.0936 215.558 48.4662 215.741 47.8767C215.925 47.2871 216.26 46.7559 216.712 46.336C217.315 45.7875 218.092 45.4687 218.907 45.4355C219.202 45.3981 219.503 45.4491 219.77 45.5819C219.77 45.6258 219.455 45.5819 218.929 45.6404C218.182 45.7396 217.487 46.0758 216.946 46.5995C216.564 46.9865 216.288 47.4648 216.143 47.989C215.999 48.5132 215.99 49.0657 216.119 49.5939C216.454 50.5439 217.127 51.3366 218.011 51.8192C218.894 52.3018 219.925 52.4401 220.904 52.2076C221.501 52.0166 222.016 51.6297 222.367 51.1094C222.958 50.1711 223.172 49.0438 222.967 47.9539C222.885 47.2057 222.537 46.5118 221.986 45.9992C221.621 45.6331 221.313 45.5453 221.328 45.5013Z" fill="#EBEBEB"/>
<path d="M24.4486 222.17C19.7886 219.768 14.3094 219.453 9.13741 220.31C6.35756 220.771 3.46066 221.598 1.56597 223.685C-0.328718 225.772 -0.679858 229.454 1.49282 231.248C2.78033 232.317 4.58723 232.478 6.26246 232.456C10.3079 232.412 14.7995 231.724 18.0403 234.132C19.8837 235.523 21.1127 237.837 23.3147 238.525C25.5166 239.213 27.9087 237.917 29.0573 235.97C30.1076 233.938 30.3405 231.58 29.7083 229.381C29.446 227.855 28.8347 226.41 27.9223 225.159C27.01 223.908 25.8211 222.885 24.4486 222.17Z" fill="#EBEBEB"/>
<path d="M35.1217 201.553C32.276 205.624 26.7383 204.276 24.1486 201.787C21.559 199.298 20.4909 195.703 19.5107 192.27C17.2502 184.421 14.9751 176.163 16.6576 168.19C17.0601 165.767 18.1233 163.502 19.7301 161.645C21.4053 159.873 23.9877 158.819 26.314 159.449C29.1085 160.181 30.8422 162.926 32.0932 165.525C35.7874 173.211 37.7242 181.625 37.7626 190.154C37.7626 194.122 37.309 198.28 35.0705 201.56" fill="#EBEBEB"/>
<path d="M42.9492 207.395C39.8548 203.735 39.2915 198.361 40.6449 193.756C41.9982 189.151 45.1292 185.241 48.6918 182.042C52.9154 178.285 57.8304 175.388 63.1617 173.513C65.2221 172.68 67.4381 172.303 69.6578 172.407C71.8524 172.62 74.0836 173.747 75.1077 175.709C76.6293 178.638 75.1736 182.137 73.5934 185.007C70.8112 190.071 67.6311 194.906 64.0834 199.466C61.2377 203.127 57.9824 206.788 53.6443 208.42C49.3063 210.053 44.8073 209.885 42.5103 206.876" fill="#EBEBEB"/>
<path d="M35.3192 262.941C35.1595 262.336 35.0711 261.715 35.0559 261.089C34.9242 259.749 34.7633 258.058 34.5658 256.045C34.3167 253.557 33.9382 251.084 33.4319 248.636C32.7721 245.654 31.8718 242.73 30.7398 239.894C29.6351 237.061 28.1352 234.399 26.2847 231.987C24.7754 230.024 22.8489 228.421 20.6445 227.294C19.1487 226.56 17.5465 226.065 15.8968 225.83C15.2752 225.803 14.6578 225.714 14.0534 225.567C14.6754 225.492 15.3041 225.492 15.9261 225.567C17.6414 225.692 19.3196 226.129 20.8786 226.855C23.1993 227.951 25.235 229.57 26.8261 231.585C28.7591 234.024 30.3174 236.738 31.4494 239.638C32.5969 242.517 33.4904 245.491 34.1195 248.526C34.6011 251.002 34.9309 253.506 35.1071 256.023C35.268 258.168 35.3266 259.903 35.3558 261.104C35.4092 261.716 35.3969 262.332 35.3192 262.941Z" fill="#E0E0E0"/>
<path d="M34.9681 259.09C34.9155 258.806 34.8983 258.515 34.9169 258.227C34.9169 257.582 34.9169 256.762 34.9169 255.774C34.9169 253.643 34.9169 250.561 34.8072 246.754C34.617 239.14 33.9659 230.94 32.7003 219.387C31.5006 208.523 29.8912 195.879 28.194 187.665C27.8356 185.79 27.4625 184.107 27.1187 182.635C26.7749 181.163 26.5115 179.89 26.2408 178.857C25.9702 177.825 25.8165 177.1 25.6702 176.471C25.5886 176.194 25.5371 175.909 25.5166 175.621C25.6441 175.879 25.7446 176.148 25.8165 176.427C25.9994 177.049 26.2408 177.825 26.5481 178.784C26.8553 179.743 27.1918 181.068 27.5576 182.54C27.9234 184.011 28.3477 185.681 28.7427 187.548C30.8466 197.269 32.429 207.096 33.4831 216.986C34.7486 228.568 35.3192 239.111 35.3704 246.74C35.4143 250.561 35.3339 253.651 35.2388 255.781C35.1729 256.777 35.129 257.59 35.0852 258.234C35.0805 258.523 35.0412 258.811 34.9681 259.09Z" fill="#E0E0E0"/>
<path d="M34.9169 238.781C34.8497 237.929 34.8497 237.072 34.9169 236.219C35.0653 233.888 35.3339 231.567 35.7216 229.264C36.2816 225.849 37.0339 222.469 37.9747 219.139C39.081 215.044 40.497 211.04 42.2104 207.161C45.7144 198.837 50.4841 192.021 54.6465 187.804C55.5641 186.838 56.5414 185.931 57.5727 185.088C58.0189 184.707 58.4213 184.355 58.8236 184.026L59.9575 183.25C60.6497 182.729 61.3837 182.266 62.1521 181.866C62.2692 182.035 59.0943 183.902 55.0781 188.177C49.9551 193.861 45.8384 200.377 42.9053 207.447C41.226 211.303 39.8061 215.268 38.6551 219.314C37.6866 222.612 36.8858 225.958 36.2556 229.337C35.7216 232.222 35.4143 234.579 35.2315 236.212C35.1934 237.075 35.0883 237.934 34.9169 238.781Z" fill="#E0E0E0"/>
<path d="M54.5514 274.619L52.5178 302.534H16.6869L14.6532 274.619H54.5514Z" fill="#E0E0E0"/>
<path d="M58.0189 263.622H10.381V274.626H58.0189V263.622Z" fill="#E0E0E0"/>
<path d="M58.0116 301.466V304.511H55.7804H11.1638V301.466H58.0116Z" fill="#EBEBEB"/>
<path d="M53.5858 309.878L55.7804 304.511H12.8756L15.436 309.878H53.5858Z" fill="#E0E0E0"/>
<path d="M15.3189 283.741C15.3642 283.833 15.4207 283.919 15.4872 283.997L16.0212 284.729L18.1061 287.402L18.2012 287.526L18.289 287.402C19.6058 285.586 21.3541 283.155 23.4098 280.3H23.1171L28.1648 287.453L28.3257 287.68L28.5013 287.467L34.4853 280.337H34.1415L34.4707 280.747L39.8255 287.467L40.0011 287.687L40.1694 287.46C41.9836 284.883 43.6881 282.482 45.217 280.307H44.9244L51.1498 287.394L51.2595 287.526L51.34 287.38C52.1593 286.003 52.8031 284.905 53.2859 284.107L53.7906 283.236C53.8543 283.137 53.9058 283.032 53.9443 282.921C53.8624 283.005 53.7911 283.098 53.7321 283.199C53.5858 283.419 53.4029 283.697 53.1835 284.041L51.1351 287.255H51.3327L45.2097 280.073L45.056 279.89L44.9171 280.088L39.7963 287.211H40.1401C38.4429 285.081 36.6506 282.818 34.7999 280.483L34.4707 280.073L34.3024 279.861L34.1268 280.066L28.1501 287.211H28.4867C26.6432 284.634 24.9314 282.24 23.3659 280.095L23.2196 279.883L23.0733 280.095L18.0549 287.27H18.2378L16.0432 284.663C15.8091 284.393 15.6189 284.166 15.4579 283.99C15.297 283.814 15.3262 283.734 15.3189 283.741Z" fill="#F5F5F5"/>
<path d="M14.1485 274.436C14.1485 274.56 23.1245 274.663 34.2 274.663C45.2755 274.663 54.2515 274.56 54.2515 274.436C54.2515 274.311 45.2755 274.216 34.2 274.216C23.1245 274.216 14.1485 274.311 14.1485 274.436Z" fill="#F5F5F5"/>
<path d="M12.3489 304.811C12.3489 304.936 22.1003 305.038 34.1341 305.038C46.168 305.038 55.9267 304.936 55.9267 304.811C55.9267 304.687 46.1753 304.592 34.1341 304.592C22.093 304.592 12.3489 304.672 12.3489 304.811Z" fill="#F5F5F5"/>
<path d="M327.328 92.4157H259.77V162.897H327.328V92.4157Z" fill="#E0E0E0"/>
<path d="M322.756 92.4157H255.198V162.897H322.756V92.4157Z" fill="#EBEBEB"/>
<path d="M313.67 101.889H264.277V153.423H313.67V101.889Z" fill="#FAFAFA"/>
<path d="M264.277 153.76C263.919 154.272 263.507 154.743 263.048 155.166C262.25 155.993 261.138 157.121 259.902 158.343C258.666 159.566 257.517 160.664 256.676 161.44C256.249 161.889 255.776 162.292 255.264 162.641C255.627 162.138 256.039 161.672 256.493 161.25C257.291 160.415 258.402 159.288 259.646 158.065C260.89 156.842 262.038 155.737 262.872 154.961C263.301 154.517 263.772 154.115 264.277 153.76Z" fill="#E0E0E0"/>
<path d="M313.678 153.636C314.18 154.005 314.648 154.419 315.075 154.873C315.902 155.664 317.028 156.776 318.25 158.021C319.471 159.266 320.569 160.408 321.352 161.242C321.798 161.673 322.203 162.147 322.559 162.655C322.05 162.296 321.582 161.884 321.161 161.425C320.335 160.635 319.208 159.522 317.979 158.27C316.75 157.018 315.653 155.883 314.877 155.041C314.431 154.615 314.029 154.144 313.678 153.636Z" fill="#E0E0E0"/>
<path d="M313.539 102.028C313.906 101.522 314.32 101.052 314.775 100.623C315.572 99.7955 316.677 98.668 317.921 97.4454C319.164 96.2227 320.305 95.1245 321.147 94.3485C321.573 93.8965 322.046 93.4916 322.559 93.1405C322.192 93.6427 321.781 94.1107 321.33 94.5388C320.532 95.3661 319.42 96.4936 318.177 97.7236C316.933 98.9535 315.785 100.044 314.951 100.82C314.522 101.27 314.049 101.675 313.539 102.028Z" fill="#E0E0E0"/>
<path d="M264.145 102.153C263.64 101.787 263.172 101.372 262.748 100.916C261.914 100.125 260.795 99.0121 259.566 97.7675C258.337 96.5229 257.254 95.3808 256.471 94.5462C256.024 94.1151 255.62 93.6419 255.264 93.1331C255.772 93.4922 256.241 93.9045 256.661 94.3631C257.488 95.1538 258.615 96.2666 259.844 97.5186C261.073 98.7705 262.163 99.9053 262.945 100.747C263.392 101.174 263.794 101.645 264.145 102.153Z" fill="#E0E0E0"/>
<path d="M313.539 153.423C313.539 153.423 313.539 153.335 313.539 153.174C313.539 153.013 313.539 152.764 313.539 152.442C313.539 151.798 313.539 150.868 313.539 149.66C313.539 147.222 313.539 143.671 313.539 139.162C313.539 130.135 313.487 117.279 313.451 101.875L313.612 102.036H264.357L264.547 101.853C264.547 120.763 264.547 138.459 264.547 153.387L264.386 153.226L300.064 153.306L310.086 153.35H313.648H300.166L264.386 153.431H264.233V153.277C264.233 138.349 264.233 120.654 264.233 101.743V101.553H313.846V101.875C313.846 117.315 313.787 130.215 313.765 139.264C313.765 143.759 313.765 147.317 313.722 149.726C313.722 150.919 313.722 151.842 313.722 152.479C313.722 152.779 313.722 153.006 313.722 153.211C313.722 153.416 313.539 153.423 313.539 153.423Z" fill="#E0E0E0"/>
<path d="M277.32 123.414C277.32 123.414 276.259 136.175 290.064 136.175C290.064 129.366 284.453 123.992 277.32 123.414Z" fill="#EBEBEB"/>
<path d="M302.58 123.428C302.58 123.428 289.829 122.367 289.829 136.182C296.633 136.182 302.002 130.567 302.58 123.428Z" fill="#EBEBEB"/>
<path d="M289.456 116.444C289.456 116.444 279.039 125.8 290.027 136.175C295.133 130.757 294.702 122.264 289.456 116.444Z" fill="#E0E0E0"/>
<path d="M328.082 309.966C328.082 310.075 258.71 310.156 173.156 310.156C87.6024 310.156 18.2085 310.075 18.2085 309.966C18.2085 309.856 87.5659 309.775 173.156 309.775C258.746 309.775 328.082 309.863 328.082 309.966Z" fill="#263238"/>
<path d="M144.194 185.446C144.194 185.446 129.454 183.133 128.225 183.177C126.996 183.221 115.306 185.512 115.306 185.512C115.306 185.512 98.7657 188.441 97.0978 189.641C95.4299 190.842 96.6589 194.613 96.6589 194.613C98.4951 195.345 104.282 194.195 104.282 194.195C104.345 195.475 104.69 196.725 105.291 197.856C106.33 199.95 109.168 199.423 109.168 199.423L106.974 200.565C107.159 201.891 107.493 203.193 107.969 204.445C108.773 206.641 114.048 206.326 114.048 206.326C114.048 206.326 115.438 209.46 117.625 209.987C119.812 210.514 131.195 207.842 134.575 207.476C137.954 207.11 144.436 203.083 144.436 203.083C147.043 204.01 149.698 204.799 152.388 205.448L154.048 183.953C152.805 183.872 144.194 185.446 144.194 185.446Z" fill="#455A64"/>
<path d="M85.1079 253.621C78.824 252.04 74.0689 246.542 71.9402 240.443C69.8114 234.345 69.8626 227.653 70.4771 221.203C70.7158 220.011 70.617 218.776 70.1918 217.638C69.3505 215.91 67.0388 215.31 65.2027 215.881C63.3665 216.452 61.9546 217.901 60.8134 219.417C57.5693 223.613 55.6116 228.661 55.178 233.949C54.7443 239.236 55.8534 244.536 58.3705 249.206C60.8876 253.875 64.7047 257.713 69.3585 260.254C74.0124 262.795 79.303 263.929 84.5885 263.52" fill="#F68E18"/>
<path d="M132.746 192.929C132.746 192.929 147.472 218.458 151.195 228.722C154.919 238.986 159.659 267.21 159.659 267.21C159.659 267.21 181.766 272.906 168.072 296.699C163.01 305.485 163.463 309.57 157.786 309.834C153.397 310.031 117.757 309.761 117.757 309.761L118.4 313.253C118.4 313.253 115.416 323.341 109.388 320.493C103.36 317.645 96.22 309.761 96.22 309.761L85.8541 309.621L61.1792 309.797L53.9589 309.658V309.46C54.2049 307.497 55.0134 305.647 56.2868 304.134C57.5602 302.62 59.2442 301.508 61.1353 300.931L66.4317 299.32C66.4317 299.32 59.5479 270.387 65.5099 263.447C71.472 256.506 81.1722 256.982 81.1722 256.982L76.7171 227.207C75.8318 220.226 76.5346 213.136 78.7727 206.466L82.1159 196.516L132.746 192.929Z" fill="#F68E18"/>
<path d="M81.5745 257.978C91.8161 263.783 98.678 273.513 102.109 284.627C102.109 284.744 102.321 284.693 102.284 284.583C99.629 275.966 94.9105 267.986 87.9536 262.158C85.9916 260.527 83.8887 259.074 81.6696 257.817C81.5672 257.758 81.4721 257.919 81.5745 257.978Z" fill="#263238"/>
<path d="M81.794 197.534C81.794 197.534 76.9878 210.382 76.5854 216.803C75.9197 227.455 81.1941 256.967 81.1941 256.967C81.1941 256.967 79.3872 285.893 77.8217 290.184C76.2562 294.474 76.9073 298.427 69.7748 299.884C67.8509 300.28 64.4931 306.525 64.4931 309.621H84.4422C84.4422 309.621 89.841 303.516 90.097 297.805C90.353 292.094 99.8484 261.067 99.8484 261.067" fill="#F68E18"/>
<path d="M99.8484 261.067C99.8484 261.067 99.8484 261.148 99.7899 261.301C99.7314 261.455 99.6802 261.697 99.5924 261.99C99.4168 262.597 99.1608 263.49 98.8243 264.64C98.1439 266.983 97.1637 270.387 95.8981 274.707C94.6325 279.026 93.1841 284.297 91.6917 290.359C91.3187 291.875 90.9602 293.442 90.6383 295.067C90.5652 295.472 90.492 295.882 90.4189 296.297C90.3457 296.707 90.3165 297.124 90.2652 297.541L90.1336 298.83C90.0604 299.262 89.9873 299.694 89.8775 300.126C88.8127 303.673 86.9963 306.95 84.5519 309.731L84.508 309.79H64.2882V309.607C64.4664 307.668 65.047 305.788 65.9927 304.087C66.4385 303.202 66.9547 302.355 67.5363 301.553C67.8358 301.148 68.1686 300.769 68.5312 300.419C68.9023 300.036 69.3741 299.767 69.8918 299.643C71.7939 299.225 73.7763 298.515 75.0126 296.963C76.2489 295.411 76.6074 293.302 77.2072 291.326C77.3097 290.952 77.4413 290.594 77.5657 290.22C77.6901 289.847 77.7632 289.488 77.8656 289.137C78.0119 288.405 78.1729 287.672 78.2753 286.94C78.5094 285.476 78.6923 283.953 78.8605 282.467C79.2044 279.495 79.4677 276.559 79.7237 273.682C80.2212 267.898 80.6309 262.312 80.982 256.982V257.026C79.4677 248.284 78.2607 240.187 77.4048 232.866C76.9805 229.205 76.6732 225.786 76.483 222.616C76.2356 219.684 76.361 216.732 76.8561 213.831C77.3609 211.202 78.0119 208.889 78.5972 206.883C79.1824 204.877 79.753 203.186 80.2212 201.809C80.6894 200.433 81.0771 199.393 81.3331 198.683L81.6404 197.885C81.7135 197.702 81.7574 197.614 81.7574 197.614L81.6696 197.892C81.6038 198.09 81.5087 198.354 81.3917 198.705C81.1503 199.437 80.7918 200.484 80.3309 201.846C79.8701 203.208 79.3434 204.928 78.7654 206.934C78.1875 208.94 77.5584 211.254 77.0683 213.875C76.5896 216.778 76.4815 219.73 76.7464 222.66C76.9219 225.852 77.2658 229.249 77.7047 232.91C78.5752 240.187 79.8042 248.284 81.3624 257.07V257.114C81.0186 262.451 80.6309 268.037 80.1261 273.821C79.8774 276.713 79.6067 279.678 79.2702 282.606C79.0946 284.07 78.9117 285.593 78.6776 287.094C78.5752 287.826 78.4143 288.595 78.268 289.349C78.1582 289.722 78.0632 290.081 77.9534 290.476C77.8437 290.872 77.7047 291.209 77.6023 291.56C77.3097 292.548 77.0756 293.551 76.761 294.547C76.468 295.552 75.9891 296.493 75.3491 297.322C74.6759 298.121 73.8339 298.761 72.8838 299.196C71.9483 299.623 70.9663 299.94 69.9577 300.14C69.5048 300.247 69.0928 300.484 68.7726 300.821C68.4252 301.155 68.107 301.517 67.8216 301.905C67.2532 302.688 66.7492 303.515 66.3146 304.379C65.3924 306.028 64.822 307.851 64.6394 309.731L64.4565 309.548H84.4056L84.2812 309.599C86.6962 306.861 88.4949 303.635 89.5556 300.14C89.6581 299.723 89.7385 299.299 89.8117 298.881L89.9434 297.615C89.9946 297.19 90.0312 296.758 90.097 296.341C90.1628 295.923 90.2506 295.513 90.3311 295.103C90.653 293.478 91.0261 291.904 91.3991 290.389C92.9134 284.319 94.435 279.077 95.686 274.743C96.9369 270.409 97.9757 267.027 98.6853 264.706C99.0437 263.564 99.3144 262.678 99.5046 262.063L99.7241 261.389C99.7558 261.278 99.7974 261.171 99.8484 261.067Z" fill="#263238"/>
<path d="M134.779 210.888C134.779 210.888 134.853 211.041 134.977 211.356L135.504 212.762C135.965 214.006 136.63 215.829 137.493 218.172C139.198 222.88 141.663 229.688 144.524 238.174C145.255 240.297 145.987 242.523 146.682 244.865C147.047 246.029 147.413 247.23 147.728 248.46C148.026 249.724 148.248 251.005 148.393 252.296C149.03 257.531 149.33 263.154 149.666 269.062C150.003 274.97 150.281 281.178 150.712 287.599C150.939 290.806 151.173 294.078 151.627 297.358C151.744 298.178 151.876 299.006 152.058 299.811C152.148 300.219 152.265 300.62 152.41 301.012C152.475 301.193 152.564 301.365 152.673 301.524C152.724 301.583 152.783 301.656 152.834 301.671C152.922 301.71 153.012 301.744 153.105 301.773C153.937 302.016 154.725 302.392 155.438 302.886C155.796 303.137 156.129 303.421 156.433 303.735C156.731 304.06 156.993 304.416 157.216 304.797C158.067 306.362 158.327 308.181 157.947 309.922V310.068H135.299V309.885C135.386 308.021 135.668 306.171 136.14 304.365C136.564 302.586 137.047 300.851 137.603 299.152V299.225C136.257 290.44 134.984 282.306 133.792 275.065C133.185 271.449 132.621 268.044 131.992 264.911C131.905 264.523 131.839 264.127 131.736 263.754L131.59 263.198C131.528 263.021 131.452 262.85 131.363 262.685C131.001 262.035 130.582 261.417 130.112 260.84C129.22 259.683 128.291 258.644 127.413 257.626C123.85 253.643 120.88 250.634 118.861 248.562L116.535 246.198L115.942 245.59C115.803 245.451 115.745 245.378 115.745 245.378L115.957 245.568L116.579 246.154C117.12 246.696 117.908 247.472 118.942 248.482C120.983 250.532 123.982 253.519 127.574 257.48C128.459 258.483 129.395 259.53 130.302 260.701C130.787 261.287 131.216 261.917 131.583 262.583C131.682 262.755 131.765 262.937 131.831 263.124L131.978 263.695C132.087 264.076 132.153 264.464 132.241 264.86C132.892 268 133.463 271.397 134.077 275.021C135.299 282.262 136.594 290.396 137.947 299.181V299.262C137.428 300.953 136.945 302.681 136.528 304.453C136.069 306.233 135.792 308.056 135.701 309.892L135.518 309.709L157.823 309.665L157.633 309.812C157.975 308.168 157.716 306.455 156.901 304.987C156.69 304.633 156.445 304.299 156.17 303.991C155.882 303.7 155.568 303.436 155.233 303.201C154.564 302.731 153.823 302.372 153.039 302.139C152.929 302.103 152.822 302.062 152.717 302.015C152.591 301.956 152.484 301.862 152.41 301.744C152.275 301.561 152.169 301.358 152.095 301.143C151.943 300.743 151.821 300.332 151.729 299.913C151.539 299.086 151.407 298.259 151.29 297.432C150.837 294.122 150.603 290.843 150.376 287.636C149.952 281.208 149.644 274.999 149.352 269.091C149.059 263.183 148.737 257.568 148.123 252.348C147.98 251.069 147.762 249.801 147.472 248.548C147.145 247.323 146.801 246.127 146.44 244.96C145.709 242.625 144.977 240.399 144.304 238.276C141.48 229.784 139.052 222.96 137.391 218.238C136.557 215.888 135.928 214.058 135.467 212.798C135.255 212.191 135.087 211.715 134.977 211.385C134.867 211.056 134.779 210.888 134.779 210.888Z" fill="#263238"/>
<path d="M115.299 278.316C115.153 278.224 115.016 278.118 114.889 278.001L113.77 277.049C112.819 276.2 111.473 274.926 109.914 273.257C105.885 268.875 102.153 264.227 98.7438 259.347C95.2842 254.507 92.1558 249.439 89.3801 244.177C88.334 242.142 87.5878 240.451 87.1123 239.265C86.9075 238.694 86.7392 238.24 86.6075 237.888C86.5421 237.729 86.4907 237.565 86.4539 237.398C86.5454 237.543 86.6215 237.698 86.6807 237.859L87.2513 239.206C87.7707 240.37 88.5461 242.039 89.6215 244.053C92.4596 249.264 95.611 254.298 99.0584 259.127C102.462 263.981 106.153 268.626 110.112 273.037C111.641 274.729 112.95 276.024 113.872 276.903L114.94 277.906C115.072 278.032 115.191 278.169 115.299 278.316Z" fill="#263238"/>
<path d="M103.031 275.512C104.383 279.838 105.278 284.294 105.701 288.807C105.714 289.289 105.911 289.747 106.251 290.087C106.591 290.428 107.049 290.625 107.53 290.638C108.014 290.636 108.478 290.442 108.821 290.099C109.163 289.756 109.357 289.292 109.358 288.807C108.928 283.966 107.988 279.183 106.557 274.538C106.428 274.07 106.118 273.673 105.696 273.433C105.274 273.194 104.775 273.132 104.307 273.261C103.84 273.39 103.442 273.699 103.203 274.122C102.964 274.544 102.902 275.044 103.031 275.512Z" fill="#F68E18"/>
<path d="M81.911 200.477C81.2892 184.817 80.1627 166.536 81.8672 160.576C83.5717 154.617 95.547 142.844 102.431 140.077C109.315 137.309 120.719 140.985 124.158 144.038L145.826 138.825C145.826 138.825 150.076 148.687 144.838 156.593C139.6 164.5 124.15 164.412 124.15 164.412C124.15 164.412 122.768 173.015 129.373 173.769C135.979 174.523 144.772 173.491 145.614 180.68L132.044 181.896L132.775 193.873L106.952 207.608L82.7743 200.623" fill="#F68E18"/>
<path d="M100.47 149.616C100.548 149.826 100.595 150.045 100.609 150.268L100.88 152.157C101.099 153.892 101.392 156.242 101.758 159.105C102.124 161.967 102.489 165.569 102.965 169.427C103.239 171.467 103.401 173.52 103.448 175.577C103.528 177.825 103.157 180.065 102.358 182.166C101.492 184.302 99.8353 186.019 97.7343 186.962C95.7707 187.773 93.6062 187.965 91.5308 187.511C89.6623 187.125 87.9242 186.266 86.4832 185.014C85.2659 183.909 84.2725 182.579 83.557 181.098C82.5168 178.966 81.9597 176.631 81.9257 174.26C81.9068 173.622 81.9288 172.984 81.9915 172.349C81.9981 172.124 82.0375 171.902 82.1086 171.69C82.1671 171.69 82.072 172.605 82.1744 174.245C82.3089 176.558 82.9191 178.819 83.9667 180.885C84.6984 182.299 85.6913 183.561 86.8928 184.604C88.2772 185.774 89.9361 186.573 91.7137 186.925C93.6748 187.343 95.7166 187.151 97.566 186.376C99.5151 185.496 101.049 183.896 101.846 181.91C102.608 179.891 102.966 177.742 102.899 175.585C102.857 173.55 102.711 171.52 102.46 169.501C102.058 165.628 101.692 162.128 101.385 159.156C101.077 156.183 100.887 153.921 100.719 152.179C100.66 151.447 100.609 150.788 100.565 150.283C100.508 150.065 100.476 149.841 100.47 149.616Z" fill="#263238"/>
<path d="M139.366 140.479C139.339 141.649 139.763 142.785 140.551 143.65C141.331 144.416 142.297 144.965 143.353 145.246C144.675 145.785 146.147 145.831 147.501 145.377C147.499 143.638 147.227 141.909 146.696 140.252C146.643 139.99 146.536 139.742 146.383 139.522C146.229 139.303 146.032 139.118 145.804 138.979C145.518 138.876 145.211 138.846 144.911 138.891C142.971 139.035 141.082 139.583 139.366 140.501" fill="#263238"/>
<path d="M82.1378 175.629C82.7231 179.501 83.7911 183.74 86.432 186.61C89.0728 189.48 93.2353 191.193 97.01 190.183C101.655 188.939 104.523 183.997 104.896 179.201C105.269 174.406 103.667 169.684 102.087 165.159C102.818 169.486 103.601 173.945 102.584 178.22C101.568 182.496 98.3195 186.544 93.9668 187.064C92.4442 187.197 90.9119 186.964 89.498 186.383C88.0841 185.802 86.8296 184.891 85.8394 183.726C83.747 181.508 82.4413 178.662 82.1232 175.629" fill="black"/>
<path d="M147.574 147.09C147.633 147.466 147.633 147.849 147.574 148.225C147.491 149.254 147.327 150.275 147.084 151.278C146.725 152.772 146.199 154.221 145.518 155.598C144.695 157.319 143.504 158.839 142.029 160.049C140.525 161.198 138.849 162.1 137.062 162.721C135.623 163.243 134.142 163.642 132.636 163.915C131.626 164.108 130.605 164.238 129.578 164.303C129.205 164.364 128.825 164.364 128.452 164.303C128.452 164.2 130.039 164.068 132.541 163.483C134.006 163.151 135.446 162.716 136.85 162.18C138.563 161.547 140.173 160.664 141.627 159.559C143.026 158.404 144.17 156.97 144.984 155.349C145.672 154.018 146.225 152.623 146.638 151.183C147.347 148.687 147.457 147.083 147.574 147.09Z" fill="#263238"/>
<path d="M116.001 150.37C115.519 150.569 115.134 150.949 114.929 151.428C114.723 151.908 114.714 152.449 114.904 152.935C115.093 153.421 115.465 153.814 115.941 154.028C116.416 154.242 116.956 154.261 117.446 154.081C117.935 153.9 118.334 153.535 118.557 153.063C118.779 152.592 118.808 152.051 118.637 151.559C118.466 151.066 118.109 150.66 117.642 150.428C117.175 150.196 116.635 150.157 116.14 150.319" fill="#263238"/>
<path d="M108.517 152.691C108.276 152.786 107.873 152.472 107.573 151.783C107.209 150.869 107.133 149.865 107.354 148.906C107.543 147.942 108.026 147.059 108.737 146.38C109.293 145.875 109.79 145.751 109.973 145.934C110.346 146.344 109.593 147.64 109.241 149.316C108.89 150.993 109.059 152.472 108.517 152.691Z" fill="#263238"/>
<path d="M135.482 280.769C135.482 280.812 134.75 280.769 133.382 280.834C132.565 280.872 131.75 280.967 130.946 281.12C129.885 281.312 128.864 281.681 127.925 282.211C125.825 283.375 123.784 285.461 121.443 287.621C119.103 289.781 116.988 292.673 113.945 294.862C112.465 295.945 110.755 296.672 108.949 296.985C107.2 297.271 105.511 297.234 103.923 297.358C102.428 297.408 100.962 297.777 99.6216 298.442C98.4765 299.063 97.4941 299.946 96.754 301.019C95.6543 302.574 95.0755 304.437 95.1007 306.342C95.1413 307.038 95.2317 307.73 95.3714 308.413C95.1152 307.754 94.9742 307.056 94.9544 306.349C94.8661 304.397 95.4213 302.47 96.5345 300.865C97.2819 299.745 98.2849 298.819 99.4607 298.164C100.835 297.464 102.346 297.072 103.887 297.014C105.496 296.875 107.178 296.897 108.876 296.619C110.626 296.308 112.282 295.602 113.718 294.554C116.696 292.409 118.839 289.569 121.195 287.372C123.55 285.176 125.584 283.148 127.779 281.969C128.752 281.446 129.805 281.087 130.895 280.908C131.71 280.77 132.534 280.696 133.36 280.688C134.041 280.688 134.567 280.688 134.926 280.725C135.112 280.725 135.298 280.739 135.482 280.769Z" fill="#263238"/>
<path d="M108.239 303.076C108.459 303.022 108.686 303.002 108.912 303.018C109.525 303.026 110.136 303.1 110.734 303.237C112.743 303.677 114.562 304.739 115.933 306.273C117.304 307.807 118.157 309.734 118.371 311.781C118.437 312.392 118.437 313.008 118.371 313.619C118.364 313.844 118.32 314.067 118.239 314.278C118.166 314.278 118.32 313.319 118.093 311.81C117.815 309.843 116.96 308.003 115.635 306.524C114.311 305.044 112.577 303.992 110.653 303.501C109.197 303.106 108.232 303.149 108.239 303.076Z" fill="#263238"/>
<path d="M115.46 312.726C115.398 313.314 115.214 313.883 114.918 314.395C114.269 315.677 113.278 316.754 112.056 317.507C110.833 318.26 109.426 318.66 107.99 318.663C107.4 318.704 106.807 318.611 106.257 318.392C106.257 318.334 106.922 318.458 107.976 318.392C109.349 318.321 110.682 317.905 111.853 317.184C113.024 316.462 113.995 315.458 114.677 314.263C115.211 313.348 115.394 312.726 115.46 312.726Z" fill="#263238"/>
<path d="M109.146 308.003C109.146 308.062 108.561 308.179 107.683 308.553C106.526 309.03 105.487 309.753 104.637 310.672C103.787 311.591 103.146 312.684 102.76 313.875C102.453 314.79 102.387 315.391 102.321 315.383C102.272 314.847 102.334 314.306 102.504 313.795C102.841 312.528 103.485 311.364 104.378 310.405C105.271 309.446 106.386 308.722 107.625 308.296C108.105 308.09 108.624 307.99 109.146 308.003Z" fill="#263238"/>
<path d="M150.808 310.302C150.822 309.811 150.873 309.322 150.961 308.838C151.114 307.665 151.006 306.473 150.647 305.346C150.245 304.243 149.436 303.336 148.386 302.813C147.933 302.636 147.462 302.509 146.982 302.432C147.486 302.294 148.023 302.341 148.496 302.564C149.075 302.808 149.597 303.169 150.028 303.625C150.46 304.082 150.793 304.623 151.005 305.214C151.394 306.395 151.47 307.656 151.225 308.875C151.169 309.371 151.028 309.854 150.808 310.302Z" fill="#263238"/>
<path d="M78.5752 301.912C78.5752 301.978 77.8949 301.912 76.8415 302.051C75.4682 302.252 74.1717 302.81 73.0814 303.669C72.0057 304.551 71.1765 305.696 70.6746 306.993C70.2942 307.989 70.2284 308.662 70.1625 308.655C70.1157 308.057 70.2058 307.456 70.4259 306.898C70.8658 305.509 71.7061 304.282 72.8411 303.37C73.9762 302.458 75.3552 301.903 76.8049 301.773C77.3979 301.683 78.0036 301.731 78.5752 301.912Z" fill="#263238"/>
<path d="M169.652 295.235C169.652 295.235 170.003 294.774 170.559 293.895C171.338 292.66 171.948 291.325 172.373 289.927C172.993 287.849 173.265 285.682 173.178 283.514C173.084 280.863 172.462 278.257 171.349 275.849C170.248 273.436 168.526 271.359 166.36 269.831C164.608 268.578 162.615 267.703 160.508 267.261C159.078 266.97 157.602 266.997 156.184 267.341C155.801 267.45 155.425 267.582 155.058 267.737C154.933 267.802 154.8 267.849 154.663 267.876C154.775 267.79 154.898 267.718 155.029 267.664C155.384 267.475 155.756 267.321 156.14 267.202C157.567 266.79 159.071 266.72 160.53 266.997C162.703 267.399 164.764 268.266 166.572 269.538C167.649 270.274 168.621 271.153 169.462 272.151C170.355 273.232 171.109 274.42 171.708 275.688C172.844 278.142 173.469 280.803 173.544 283.507C173.618 285.709 173.314 287.908 172.644 290.008C172.189 291.419 171.534 292.758 170.698 293.983C170.391 294.408 170.142 294.715 169.967 294.935C169.873 295.046 169.768 295.147 169.652 295.235Z" fill="#263238"/>
<path d="M81.1429 257.817C77.737 257.038 74.1655 257.491 71.0623 259.098C69.0934 260.084 67.3614 261.485 65.9854 263.205C65.2747 264.082 64.7159 265.072 64.3321 266.133C63.9941 267.136 63.7492 268.168 63.6006 269.216C63.3557 271.008 63.2506 272.817 63.286 274.626C63.286 276.171 63.3446 277.423 63.3665 278.287C63.3665 278.682 63.3665 279.019 63.3665 279.282C63.3851 279.399 63.3851 279.517 63.3665 279.634C63.3326 279.522 63.3154 279.406 63.3153 279.29C63.3153 279.011 63.2641 278.689 63.2348 278.294C63.169 277.423 63.0812 276.171 63.03 274.633C62.9599 272.809 63.0407 270.982 63.2714 269.172C63.4134 268.099 63.6583 267.042 64.0029 266.016C64.394 264.909 64.9704 263.877 65.7074 262.963C67.118 261.2 68.902 259.773 70.9306 258.783C72.5777 257.97 74.3563 257.457 76.1831 257.267C77.4043 257.143 78.6372 257.202 79.8408 257.443C80.1705 257.503 80.4956 257.587 80.8137 257.692C80.9283 257.719 81.0389 257.761 81.1429 257.817Z" fill="#263238"/>
<path d="M50.9669 241.937C50.8669 241.681 50.8029 241.412 50.7767 241.139C50.6461 240.412 50.5582 239.679 50.5133 238.942C50.1799 233.988 51.2257 229.039 53.5346 224.644C53.8727 223.964 54.2538 223.306 54.6758 222.675C54.8106 222.435 54.9753 222.214 55.1659 222.016C55.2245 222.052 54.588 223.033 53.7687 224.717C51.6292 229.124 50.6043 233.988 50.784 238.884C50.8498 240.78 51.0327 241.93 50.9669 241.937Z" fill="#263238"/>
<path d="M48.6187 243.079C48.5163 242.822 48.4451 242.554 48.4065 242.281C48.2821 241.768 48.1578 241.007 48.0334 240.085C47.4319 235.159 47.9163 230.161 49.4526 225.442C49.7525 224.542 50.0232 223.824 50.2427 223.341C50.3333 223.084 50.4536 222.838 50.6011 222.609C50.667 222.609 50.2354 223.729 49.7086 225.537C48.3274 230.259 47.8508 235.2 48.3041 240.099C48.4723 241.915 48.6845 243.072 48.6187 243.079Z" fill="#263238"/>
<path d="M96.337 272.108C99.3826 275.457 101.558 279.505 102.672 283.895C102.995 284.842 103.008 285.868 102.709 286.823C101.867 288.8 99.1535 288.888 97.3027 289.957C95.7445 290.85 94.7862 292.475 93.8937 294.035L84.8226 309.819C87.6244 309.585 88.6632 309.878 91.465 309.651L95.9713 309.746C95.803 309.819 95.0934 307.601 95.0349 306.561C94.852 303.384 96.9954 299.54 99.8484 298.127C103.426 296.348 107.544 297.834 111.18 296.165C114.655 294.562 116.725 292.116 118.986 289.876C121.824 287.057 124.64 283.287 128.276 281.654C129.922 280.922 133.85 280.834 133.85 280.834C131.985 278.638 128.561 278.748 125.803 279.495C123.046 280.241 120.163 281.464 117.347 280.827C114.984 280.3 113.104 278.55 111.356 276.874C106.871 272.583 102.233 268.088 100.229 262.18L96.4907 271.851" fill="black"/>
<path d="M157.786 309.834C159.249 306.276 155.928 302.073 154.597 298.471C153.265 294.869 153.543 290.799 153.551 286.911C153.571 278.697 152.247 270.536 149.63 262.751C149.337 273.425 150.559 284.759 151.195 295.411C151.327 297.673 151.151 300.287 152.812 301.824C153.661 302.615 154.165 302.271 155.116 302.93C156.067 303.589 157.933 305.126 157.786 309.812" fill="black"/>
<path d="M114.706 204.686C113.354 204.206 112.11 203.462 111.048 202.497C109.985 201.532 109.125 200.365 108.517 199.064C109.381 200.169 110.312 201.221 111.304 202.212C112.383 203.11 113.519 203.937 114.706 204.686Z" fill="#263238"/>
<path d="M117.449 203.186C115.104 202.478 113.051 201.03 111.597 199.056C111.685 198.983 112.789 200.147 114.406 201.253C116.023 202.358 117.493 203.076 117.449 203.186Z" fill="#263238"/>
<path d="M121.063 203.054C119.911 202.85 118.825 202.373 117.896 201.663C116.895 201.06 116.051 200.23 115.43 199.239C115.518 199.159 116.549 200.301 118.108 201.348C119.666 202.395 121.1 202.944 121.063 203.054Z" fill="#263238"/>
<path d="M96.1834 234.498C94.852 233.924 93.6815 233.031 92.7744 231.899C91.777 230.85 91.0555 229.57 90.6749 228.173C91.392 229.385 92.1913 230.547 93.067 231.651C94.0417 232.668 95.0828 233.619 96.1834 234.498Z" fill="#263238"/>
<path d="M98.8828 234.535C96.814 233.256 95.2228 231.332 94.3546 229.059C94.457 229.008 95.2105 230.421 96.4614 231.929C97.7123 233.437 98.9486 234.447 98.8828 234.535Z" fill="#263238"/>
<path d="M103.587 235.45C102.638 234.709 101.77 233.87 100.997 232.946C100.13 232.109 99.3551 231.181 98.6853 230.179C99.633 230.924 100.501 231.766 101.275 232.69C102.141 233.526 102.915 234.451 103.587 235.45Z" fill="#263238"/>
<path d="M89.0728 174.523C89.0728 174.523 88.7436 174.391 88.3413 173.996C87.8674 173.465 87.5131 172.838 87.3025 172.158C87.0696 171.484 86.9824 170.768 87.0465 170.057C87.105 169.515 87.2367 169.201 87.2806 169.208C87.2841 170.162 87.412 171.112 87.661 172.034C88.0161 172.924 88.4911 173.762 89.0728 174.523Z" fill="#263238"/>
<path d="M90.3603 173.959C89.8082 173.433 89.4239 172.756 89.2557 172.012C88.9752 171.302 88.9065 170.527 89.0582 169.779C89.1752 169.779 89.263 170.76 89.6215 171.895C89.9799 173.03 90.4481 173.901 90.3603 173.959Z" fill="#263238"/>
<path d="M93.2646 175.819C91.8811 174.231 90.9957 172.27 90.7188 170.182C90.8285 170.182 91.2162 171.485 91.9185 173.03C92.6208 174.574 93.3523 175.716 93.2646 175.819Z" fill="#263238"/>
<path d="M179.418 40.6327C173.749 44.1103 171.825 52.5077 171.583 59.1554C171.342 65.8031 173.149 72.3336 174.619 78.8275C176.09 85.3214 177.223 92.1228 175.629 98.5948C174.166 104.584 170.42 110.894 173.105 116.444C175.131 120.632 180.318 122.806 181.752 127.235C183.42 132.404 179.199 137.485 175.321 141.255C176.252 142.668 177.674 143.684 179.31 144.107C180.947 144.53 182.682 144.331 184.18 143.547C184.131 144.334 183.92 145.103 183.56 145.805C183.2 146.506 182.699 147.126 182.088 147.625C184.304 148.158 186.627 148.042 188.779 147.29C190.93 146.538 192.821 145.183 194.224 143.386C193.69 145.231 193.149 147.047 192.615 148.921C197.068 147.868 200.935 145.121 203.398 141.263L205.263 144.762C212.396 139.857 217.356 132.141 219.792 123.824C222.228 115.507 222.25 106.626 220.853 98.075C218.777 85.9752 213.964 74.5105 206.783 64.5573C199.602 54.604 190.241 46.4257 179.418 40.6474" fill="#263238"/>
<path d="M262.389 101.604C259.851 98.5508 256.72 95.5199 256.369 91.5591C256.215 89.8166 256.632 88.0229 256.237 86.3098C255.213 81.9171 249.478 80.1526 247.751 75.9649C245.557 70.7083 250.516 63.7531 246.859 59.397C245.103 57.3105 242.082 56.9005 239.777 55.4436C233.925 51.7317 235.344 41.5332 221.306 34.1095L222.352 56.5271C227.083 75.4867 230.841 94.6763 233.611 114.021L265.294 112.454C267.1 108.925 264.935 104.657 262.389 101.604Z" fill="#263238"/>
<path d="M172.71 48.8032C172.877 46.0063 173.6 43.2709 174.836 40.7568C176.072 38.2427 177.796 36.0004 179.908 34.1608C184.553 30.1488 190.823 28.3624 196.953 28.3038C203.083 28.2452 209.148 29.7022 214.986 31.591C218.263 32.6526 221.569 33.8826 224.225 36.0716C229.082 40.0617 231.014 46.5117 232.703 52.5663C234.064 57.4642 235.439 62.611 234.313 67.5675C233.776 69.8461 232.735 71.975 231.266 73.7971C229.797 75.6193 227.939 77.0882 225.827 78.0954" fill="#263238"/>
<path d="M174.407 44.5862C171.078 50.2379 169.767 56.8538 170.688 63.3492C171.609 69.8446 174.708 75.8341 179.477 80.3357C179.639 66.2017 181.032 52.1088 183.639 38.2167" fill="#263238"/>
<path d="M173.12 64.0313C171.656 54.1257 175.585 40.7499 185.556 39.7103L209.294 40.6108C216.91 40.9036 223.033 45.9699 225.161 53.2911C225.264 53.6572 225.205 53.1959 225.256 53.4815L236.288 112.856C237.147 117.533 236.126 122.359 233.446 126.285C230.766 130.211 226.644 132.918 221.979 133.817C217.357 134.707 212.571 133.749 208.646 131.149C204.721 128.548 201.971 124.513 200.984 119.907C199.952 115.155 198.745 109.547 198.745 109.577C198.745 109.606 185.826 110.155 179.777 94.4144C176.77 86.5807 174.744 75.0351 173.12 64.0313Z" fill="#E18978"/>
<path d="M194.393 54.1184C191.523 55.753 188.348 56.7821 185.066 57.1421C185.066 57.0249 187.187 56.5564 189.755 55.7218C192.322 54.8871 194.341 54.0159 194.393 54.1184Z" fill="#724A44"/>
<path d="M190.633 54.3234C188.851 55.3494 186.835 55.8968 184.78 55.9121C185.735 55.5701 186.712 55.2985 187.706 55.0995C188.661 54.7693 189.639 54.5099 190.633 54.3234Z" fill="#724A44"/>
<path d="M204.349 85.1091C204.247 85.1457 203.961 84.5161 203.215 84.2379C202.469 83.9597 201.84 84.2379 201.789 84.0988C201.737 83.9597 201.891 83.9084 202.184 83.8059C202.57 83.6816 202.988 83.6998 203.361 83.8572C203.741 84.001 204.06 84.2728 204.261 84.6259C204.393 84.9041 204.386 85.1018 204.349 85.1091Z" fill="#724A44"/>
<path d="M179.477 76.0162C179.588 76.562 179.908 77.0427 180.369 77.3559C180.829 77.669 181.394 77.7899 181.942 77.6927C182.212 77.6579 182.473 77.5691 182.708 77.4315C182.944 77.294 183.149 77.1105 183.312 76.8919C183.475 76.6734 183.593 76.4243 183.658 76.1594C183.723 75.8945 183.734 75.6192 183.69 75.3499C183.58 74.8046 183.262 74.324 182.802 74.0107C182.343 73.6974 181.78 73.5764 181.232 73.6734C180.962 73.7092 180.702 73.7986 180.467 73.9363C180.231 74.0741 180.026 74.2574 179.863 74.4756C179.699 74.6938 179.581 74.9424 179.514 75.2069C179.448 75.4715 179.435 75.7466 179.477 76.0162Z" fill="#263238"/>
<path d="M177.472 70.3276C177.787 70.5472 179.118 69.039 181.371 68.5632C183.624 68.0873 185.504 68.8633 185.687 68.5632C185.782 68.4167 185.417 67.9775 184.583 67.6041C183.467 67.1406 182.237 67.0308 181.057 67.2893C179.889 67.5361 178.829 68.146 178.028 69.0317C177.45 69.6613 177.319 70.2324 177.472 70.3276Z" fill="#263238"/>
<path d="M199.66 71.6015C199.763 72.1605 200.084 72.6557 200.551 72.9783C201.019 73.3009 201.596 73.4245 202.154 73.322C202.424 73.2862 202.684 73.1968 202.919 73.0589C203.154 72.9211 203.359 72.7376 203.522 72.5193C203.685 72.301 203.802 72.0522 203.868 71.7877C203.933 71.5232 203.945 71.2483 203.903 70.9792C203.793 70.4334 203.474 69.9522 203.015 69.6377C202.556 69.3233 201.993 69.2004 201.445 69.2953C201.175 69.3268 200.915 69.4119 200.678 69.5455C200.442 69.6791 200.235 69.8585 200.068 70.0732C199.902 70.288 199.78 70.5337 199.71 70.7962C199.64 71.0586 199.623 71.3323 199.66 71.6015Z" fill="#263238"/>
<path d="M199.645 66.0447C199.967 66.2643 201.298 64.7561 203.544 64.2803C205.79 63.8044 207.677 64.5877 207.868 64.2803C207.955 64.1338 207.59 63.6946 206.763 63.3285C205.647 62.8578 204.412 62.7452 203.23 63.0064C202.06 63.2528 200.999 63.8657 200.201 64.7561C199.623 65.4077 199.492 65.9495 199.645 66.0447Z" fill="#263238"/>
<path d="M195.036 84.4575C195.036 84.3257 193.573 84.3843 191.247 84.5746C190.662 84.6405 190.091 84.6405 189.916 84.2672C189.731 83.6885 189.731 83.0668 189.916 82.4881C190.157 80.9799 190.413 79.4059 190.684 77.7513C191.715 71.0231 192.33 65.5395 192.059 65.5029C191.788 65.4663 190.735 70.884 189.696 77.6122C189.452 79.2668 189.223 80.8481 189.009 82.3563C188.794 83.1273 188.859 83.9492 189.191 84.6771C189.317 84.8617 189.483 85.0151 189.677 85.1255C189.871 85.2359 190.088 85.3004 190.311 85.3141C190.646 85.3304 190.983 85.3058 191.313 85.2409C193.639 84.8821 195.058 84.5893 195.036 84.4575Z" fill="#263238"/>
<path d="M219.089 99.1366C219.089 99.1366 216.163 111.458 199.572 113.406L198.745 109.577C206.362 108.049 213.405 104.434 219.089 99.1366Z" fill="#724A44"/>
<path d="M197.136 89.6775C197.45 89.0476 197.919 88.508 198.498 88.1096C199.078 87.7113 199.75 87.4673 200.45 87.4006C200.955 87.3393 201.468 87.381 201.957 87.5231C202.446 87.6653 202.901 87.9051 203.296 88.2279C203.672 88.5411 203.945 88.9622 204.075 89.4346C204.206 89.9071 204.189 90.4083 204.027 90.8709C203.752 91.3514 203.34 91.7385 202.843 91.9825C202.346 92.2265 201.788 92.3161 201.24 92.24C200.097 92.0921 198.995 91.7162 197.999 91.1345C197.708 91.0082 197.443 90.8295 197.216 90.6073C197.109 90.5006 197.035 90.3646 197.004 90.2163C196.973 90.068 196.986 89.9138 197.041 89.7727" fill="#724A44"/>
<path d="M201.979 84.6039C201.613 84.6625 202.125 87.1078 200.406 89.2822C198.687 91.4566 196.017 91.7421 196.083 92.0862C196.083 92.2473 196.763 92.4376 197.868 92.2326C199.308 91.9562 200.604 91.1781 201.525 90.0363C202.403 88.9409 202.82 87.5466 202.688 86.1487C202.542 85.1018 202.154 84.56 201.979 84.6039Z" fill="#263238"/>
<path d="M197.692 59.58C198.043 60.1438 200.223 59.375 202.93 59.1334C205.636 58.8918 207.919 59.1334 208.153 58.5331C208.248 58.2403 207.758 57.7424 206.77 57.3324C205.469 56.852 204.075 56.6742 202.695 56.8125C201.315 56.9507 199.984 57.4014 198.804 58.1304C197.919 58.7235 197.538 59.3092 197.692 59.58Z" fill="#263238"/>
<path d="M176.916 63.6433C177.421 64.0679 178.855 63.2114 180.713 62.7867C182.571 62.3621 184.217 62.3987 184.473 61.791C184.575 61.4982 184.217 61.0589 183.427 60.7002C182.381 60.3164 181.245 60.2506 180.162 60.5111C179.079 60.7717 178.098 61.3469 177.34 62.1644C176.792 62.8599 176.689 63.431 176.916 63.6433Z" fill="#263238"/>
<path d="M174.356 48.2029C174.824 45.5379 177.194 43.488 179.806 42.7852C182.417 42.0823 185.212 42.5289 187.787 43.3635C198.68 46.8851 206.522 56.8419 217.341 60.583C220.004 61.5055 222.842 62.0473 225.249 63.5115C227.656 64.9758 229.638 67.7139 229.038 70.474C230.046 68.4739 230.758 66.3383 231.153 64.1338C231.345 63.0298 231.299 61.8973 231.018 60.8125C230.736 59.7277 230.226 58.7158 229.521 57.8449C228.387 56.5857 226.69 55.8023 225.937 54.2795C225.278 52.9397 225.52 51.351 225.147 49.8867C224.665 48.4377 223.848 47.1232 222.762 46.0504C217.59 40.1935 211.138 35.3249 203.691 33.0187C198.816 31.4397 193.602 31.2245 188.614 32.3964C183.606 33.591 179.193 36.5448 176.177 40.7206C174.466 43.1732 172.651 45.7283 174.348 48.2029" fill="#263238"/>
<path d="M235.227 72.9339C234.803 72.8241 234.759 71.7113 234.437 69.9542C234.283 68.9756 233.958 68.0315 233.479 67.1648C233.349 66.9553 233.202 66.7569 233.04 66.5718C232.963 66.4834 232.88 66.4003 232.791 66.3229L232.44 66.0007C231.915 65.5341 231.355 65.1083 230.765 64.7268C230.28 64.3889 229.729 64.1569 229.148 64.046C228.958 64.046 228.929 64.0899 229.016 64.0972L228.468 64.3315L227.883 64.6097C227.124 64.9815 226.412 65.441 225.761 65.9788C225.417 66.257 225.081 66.5645 224.737 66.8939L224.481 67.1502L224.042 67.5602C223.746 67.8211 223.436 68.0655 223.113 68.2923C221.8 69.2005 220.3 69.8011 218.724 70.0494C217.763 70.198 216.783 70.1657 215.834 69.9542L215.439 69.8517L215.125 69.7419C214.92 69.6687 214.7 69.6028 214.503 69.5149C214.096 69.3423 213.7 69.1443 213.318 68.9219C211.934 68.0772 210.712 66.9911 209.711 65.7152C208.738 64.5365 208.007 63.3871 207.275 62.3401C204.664 58.5365 201.472 55.1668 197.816 52.354C194.798 50.0303 191.512 48.0786 188.028 46.541C185.746 45.4391 183.321 44.6651 180.823 44.2421C179.074 43.9859 177.977 44.0517 177.823 43.6271C177.67 43.2025 178.555 42.3679 180.676 41.8481C182.798 41.3283 185.965 41.4674 189.455 42.4338C193.61 43.5452 197.55 45.3415 201.116 47.749C205.531 50.7016 209.342 54.4713 212.345 58.8552C213.076 59.9827 213.808 61.0004 214.452 61.8496C214.996 62.5786 215.656 63.2141 216.405 63.7312C216.552 63.8276 216.706 63.9132 216.866 63.9874C216.942 64.026 217.02 64.0602 217.1 64.0899L217.209 64.1338H217.261C217.497 64.2063 217.747 64.2263 217.992 64.1924C218.731 64.1004 219.442 63.8507 220.077 63.4603C220.238 63.3651 220.384 63.2699 220.523 63.1748L220.721 63.0283L221.079 62.7208C221.569 62.3109 222.081 61.9228 222.608 61.5641C223.648 60.8572 224.771 60.2817 225.951 59.8509C226.229 59.7557 226.5 59.6606 226.771 59.58L227.166 59.4556L227.627 59.3311C228.516 59.0927 229.455 59.113 230.333 59.3897C231.498 59.7696 232.565 60.402 233.457 61.242C234.163 61.8721 234.805 62.5711 235.374 63.3285C235.513 63.5115 235.622 63.6506 235.769 63.8776C235.918 64.0878 236.052 64.308 236.171 64.5365C236.39 64.948 236.568 65.3795 236.705 65.825C237.084 67.1644 237.139 68.5747 236.866 69.9396C236.398 72.1066 235.615 73.0437 235.227 72.9339Z" fill="#263238"/>
<path d="M226.112 66.0007C226.185 65.4956 234.02 60.605 236.069 69.6101C238.066 78.3955 228.848 78.5346 228.753 78.293C228.658 78.0514 226.112 66.0007 226.112 66.0007Z" fill="#E18978"/>
<path d="M230.728 74.3542C230.765 74.3542 230.904 74.4275 231.189 74.486C231.588 74.5574 231.999 74.4736 232.338 74.2517C233.179 73.7027 233.633 72.0554 233.318 70.474C233.175 69.7181 232.862 69.0046 232.404 68.3875C232.26 68.1314 232.057 67.9141 231.811 67.7546C231.565 67.5951 231.284 67.4982 230.992 67.4723C230.806 67.4675 230.625 67.5267 230.479 67.6401C230.332 67.7535 230.229 67.914 230.187 68.0946C230.121 68.3655 230.187 68.5266 230.187 68.5485C230.187 68.5705 229.96 68.446 229.953 68.0726C229.953 67.844 230.03 67.622 230.172 67.443C230.372 67.2082 230.656 67.061 230.962 67.033C231.338 67.0221 231.71 67.1079 232.043 67.2823C232.376 67.4566 232.659 67.7136 232.864 68.0287C233.408 68.7024 233.777 69.4994 233.94 70.3495C234.276 72.1286 233.75 74.0101 232.564 74.6324C232.343 74.7559 232.096 74.8274 231.842 74.8413C231.589 74.8553 231.335 74.8114 231.101 74.713C230.794 74.5592 230.684 74.3762 230.728 74.3542Z" fill="#724A44"/>
<path d="M196.675 129.637C194.911 130.393 193.316 131.496 191.984 132.879C190.653 134.262 189.611 135.898 188.921 137.69C186.499 143.825 175.98 181.171 175.98 181.171L154.034 183.989L152.373 204.284C158.72 205.939 165.195 207.056 171.73 207.622C179.82 208.354 192.9 207.146 196.309 205.236C199.718 203.325 195.973 130.508 195.973 130.508L196.675 129.637Z" fill="#E0E0E0"/>
<path d="M201.123 124.095C208.072 131.994 226.332 115.975 234.459 103.244L208.314 226.13L203.852 225.039L201.123 124.095Z" fill="#455A64"/>
<path d="M200.582 118.713L198.899 126.694L192.644 132.36C192.564 142.786 198.197 163.607 196.792 167.78C194.795 173.747 193.998 179.926 196.39 188.624C197.611 193.075 205.007 225.039 205.007 225.039C205.007 225.039 202.886 308.684 203.12 309.797H220.121L203.522 198.515L202.886 128.809L200.582 118.713Z" fill="#E0E0E0"/>
<path d="M309.647 256.762C304.38 243.584 284.899 209.863 284.899 209.863C284.899 209.863 283.319 198.01 281.973 171.924C280.627 145.839 269.368 116.598 266.998 112.124C264.628 107.651 238.292 103.251 238.292 103.251L233.684 96.5375C233.684 96.5375 223.866 122.374 223.369 123.106C222.872 123.838 212.33 154.851 211.277 163.549C210.223 172.246 207.275 219.087 207.275 219.087L220.121 309.797H315.894C315.894 309.797 314.914 269.933 309.647 256.762Z" fill="#E0E0E0"/>
<path d="M220.933 253.482L268.571 248.101H268.739V248.27C270.092 262.861 271.665 280.183 273.421 298.698C273.611 300.741 273.794 302.761 273.984 304.775V304.972H273.845L235.549 305.851H235.417L235.381 305.719C231.138 290.169 227.575 277.101 225.066 267.913C223.793 263.337 222.791 259.727 222.096 257.253L221.284 254.441L221.057 253.709C220.999 253.548 220.962 253.475 220.97 253.475C221.015 253.547 221.055 253.623 221.087 253.702C221.145 253.863 221.233 254.097 221.335 254.434C221.547 255.064 221.833 256.001 222.199 257.231C222.93 259.683 223.969 263.285 225.264 267.869C227.846 277.027 231.46 290.081 235.71 305.639L235.542 305.514L273.838 304.592L273.655 304.804C273.475 302.793 273.287 300.768 273.092 298.727C271.395 280.205 269.807 262.854 268.468 248.292L268.644 248.438L220.933 253.482Z" fill="#263238"/>
<path d="M269.69 260.196C269.69 260.298 259.449 261.133 246.851 262.056C234.254 262.978 223.991 263.644 223.984 263.52C223.976 263.395 234.225 262.583 246.822 261.66C259.419 260.738 269.683 260.086 269.69 260.196Z" fill="#263238"/>
<path d="M284.548 209.723C284.377 209.87 284.188 209.993 283.984 210.09C283.611 210.302 283.048 210.587 282.346 210.91C280.503 211.744 278.568 212.358 276.581 212.74C274.595 213.101 272.579 213.267 270.561 213.238C269.785 213.238 269.163 213.201 268.732 213.164C268.507 213.167 268.283 213.137 268.066 213.077C268.892 212.992 269.723 212.956 270.553 212.967C272.553 212.919 274.546 212.718 276.515 212.366C278.475 211.983 280.393 211.412 282.243 210.661C282.995 210.309 283.764 209.997 284.548 209.723Z" fill="#263238"/>
<path d="M284.899 209.863C284.411 210.473 283.867 211.036 283.275 211.546C282.229 212.542 280.744 213.875 279.076 215.31L274.811 218.97C274.243 219.497 273.642 219.986 273.011 220.434C273.495 219.82 274.039 219.256 274.635 218.751C275.681 217.755 277.167 216.422 278.827 214.98L283.092 211.319C283.659 210.791 284.263 210.305 284.899 209.863Z" fill="#263238"/>
<path d="M252.353 280.761C250.516 280.095 248.512 279.831 246.815 280.805C246.155 281.238 245.631 281.85 245.305 282.569C244.979 283.289 244.863 284.086 244.971 284.868C245.219 286.442 245.993 287.884 247.166 288.961C247.879 289.774 248.866 290.295 249.939 290.425C251.15 290.375 252.294 289.849 253.121 288.961C254.052 288.172 254.775 287.167 255.228 286.033C255.446 285.46 255.53 284.844 255.473 284.233C255.416 283.623 255.22 283.033 254.898 282.511C254.108 281.34 252.66 280.827 251.307 280.388" fill="#F68E18"/>
<path d="M246.098 279.78C246.254 279.002 246.17 278.195 245.857 277.467C245.696 277.109 245.458 276.792 245.159 276.539C244.86 276.286 244.509 276.102 244.13 276.002C243.747 275.905 243.344 275.923 242.971 276.053C242.597 276.183 242.271 276.42 242.031 276.735C241.725 277.217 241.607 277.796 241.701 278.36C241.755 278.862 241.942 279.341 242.243 279.747C242.544 280.152 242.948 280.47 243.413 280.666C243.892 280.86 244.423 280.879 244.914 280.72C245.405 280.56 245.824 280.233 246.098 279.795" fill="#F68E18"/>
<path d="M254.277 280.161C255.065 280.144 255.83 279.889 256.471 279.429C256.791 279.199 257.056 278.902 257.247 278.557C257.439 278.213 257.551 277.83 257.576 277.437C257.592 277.042 257.492 276.651 257.289 276.312C257.087 275.973 256.79 275.7 256.435 275.527C255.897 275.325 255.304 275.325 254.767 275.527C254.287 275.681 253.858 275.96 253.522 276.336C253.186 276.712 252.957 277.17 252.857 277.664C252.763 278.173 252.852 278.699 253.107 279.149C253.363 279.6 253.769 279.945 254.255 280.124" fill="#F68E18"/>
<path d="M258.271 282.709C258.817 282.706 259.35 282.537 259.8 282.225C260.015 282.064 260.192 281.857 260.319 281.619C260.445 281.381 260.518 281.118 260.531 280.849C260.543 280.576 260.475 280.305 260.335 280.071C260.194 279.837 259.988 279.649 259.741 279.531C259.371 279.392 258.963 279.392 258.593 279.531C258.264 279.637 257.969 279.829 257.737 280.086C257.506 280.343 257.347 280.657 257.276 280.995C257.215 281.347 257.278 281.708 257.454 282.018C257.631 282.328 257.909 282.567 258.242 282.694" fill="#F68E18"/>
<path d="M249.792 278.821C250.659 278.468 251.399 277.861 251.914 277.079C252.166 276.687 252.327 276.243 252.387 275.781C252.446 275.319 252.402 274.849 252.258 274.406C252.101 273.968 251.821 273.584 251.451 273.302C251.081 273.02 250.637 272.852 250.173 272.818C249.496 272.829 248.847 273.089 248.351 273.55C247.893 273.93 247.543 274.425 247.339 274.985C247.134 275.544 247.082 276.148 247.188 276.735C247.315 277.33 247.643 277.863 248.118 278.243C248.593 278.623 249.184 278.828 249.792 278.821Z" fill="#F68E18"/>
<path d="M211.247 187.533C211.254 187.46 211.271 187.388 211.299 187.321C211.342 187.159 211.408 186.954 211.481 186.691C211.664 186.12 211.913 185.315 212.213 184.297C212.886 182.188 213.852 179.172 215.051 175.475L224.561 146.241C224.635 145.729 224.715 145.18 224.788 144.623C225.52 139.667 226.163 134.901 226.793 130.471V130.427H226.829L235.549 120.661L235.513 120.741L237.458 108.01C237.693 106.546 237.883 105.345 238.014 104.518C238.08 104.13 238.132 103.829 238.168 103.603C238.185 103.498 238.209 103.396 238.241 103.295C238.253 103.4 238.253 103.505 238.241 103.61C238.241 103.837 238.175 104.144 238.131 104.525C238.022 105.36 237.861 106.538 237.656 108.039C237.217 111.099 236.595 115.463 235.842 120.785V120.829L227.166 130.64L227.21 130.545C226.588 134.974 225.922 139.74 225.227 144.696C225.147 145.253 225.074 145.809 225 146.322C221.211 157.765 217.809 168.058 215.344 175.519C214.1 179.179 213.098 182.21 212.418 184.304C212.067 185.315 211.796 186.113 211.599 186.676C211.511 186.935 211.438 187.14 211.379 187.291C211.284 187.438 211.255 187.533 211.247 187.533Z" fill="#263238"/>
<path d="M203.083 196.618C203.074 196.57 203.074 196.52 203.083 196.472C203.083 196.355 203.032 196.216 203.003 196.04C202.935 195.63 202.847 195.074 202.74 194.371C202.513 192.907 202.198 190.776 201.803 188.162C201.035 182.847 199.974 175.475 198.767 167.085V167.033C199.031 164.932 199.309 162.751 199.587 160.518C200.077 156.703 200.545 153.035 200.977 149.602L201.028 149.748L195.57 144.081L195.512 144.016V143.935L197.802 131.408C198.087 129.944 198.314 128.744 198.467 127.909C198.548 127.528 198.614 127.221 198.658 126.986C198.672 126.881 198.699 126.778 198.738 126.679C198.749 126.784 198.749 126.889 198.738 126.994C198.701 127.235 198.658 127.543 198.599 127.924C198.46 128.766 198.263 129.952 198.021 131.438C197.494 134.498 196.748 138.81 195.827 143.994L195.79 143.855L201.247 149.499L201.306 149.558V149.646C200.874 153.079 200.406 156.755 199.93 160.569C199.645 162.765 199.367 164.962 199.104 167.077V167.033L202.03 188.133C202.381 190.754 202.659 192.87 202.857 194.364C202.937 195.096 203.01 195.63 203.054 196.04L203.105 196.472C203.096 196.57 203.088 196.618 203.083 196.618Z" fill="#263238"/>
<path d="M220.106 309.68C220.004 309.68 217.414 292.058 214.32 270.285C211.225 248.511 208.804 230.838 208.906 230.823C209.009 230.809 211.606 248.453 214.693 270.233C217.78 292.014 220.209 309.665 220.106 309.68Z" fill="#263238"/>
<path d="M159.725 213.648L174.524 209.387L183.727 230.823L163.112 230.179L159.725 214.519" fill="#E18978"/>
<path d="M174.524 209.387L186.558 237.427C186.558 237.427 246.72 220.244 251.021 215.419C255.323 210.595 264.423 167.099 265.974 158.643C267.525 150.187 269.237 115.939 262.016 110.455C254.796 104.972 247.751 106.172 240.875 113.742C235.308 119.87 226.244 154.953 222.989 168.058C222.192 171.284 221.979 174.627 222.359 177.927L222.996 183.411C222.996 183.411 217.326 188.573 216.983 193.39L174.524 209.387Z" fill="#E0E0E0"/>
<path d="M232.879 132.448C232.879 132.448 232.806 132.756 232.652 133.349C232.499 133.942 232.25 134.813 231.921 135.984C231.284 138.298 230.355 141.702 229.155 146.073L224.766 161.989C224.335 163.534 223.896 165.137 223.435 166.792C222.927 168.477 222.586 170.208 222.418 171.961C222.228 173.813 222.228 175.68 222.418 177.532C222.647 179.445 222.876 181.398 223.106 183.389V183.462L223.054 183.514C221.657 184.838 220.408 186.311 219.331 187.906C218.139 189.532 217.369 191.429 217.092 193.426V193.522L217.005 193.558L174.575 209.584L174.678 209.343L186.719 237.376L186.492 237.273C191.452 235.809 196.734 234.301 202.008 232.705C212.337 229.601 222.403 226.482 232.038 223.187C236.851 221.54 241.548 219.893 246.061 217.96C247.181 217.484 248.256 216.964 249.331 216.386C249.855 216.107 250.346 215.771 250.794 215.383C250.994 215.175 251.17 214.947 251.321 214.702C251.467 214.446 251.621 214.197 251.753 213.933C252.748 211.8 253.589 209.598 254.269 207.344C255.674 202.885 256.844 198.478 257.927 194.166C259.01 189.854 260.012 185.688 260.941 181.632C262.792 173.52 264.43 165.943 265.769 159.002C266.896 152.739 267.702 146.422 268.183 140.077C268.591 135.289 268.647 130.479 268.351 125.683C268.044 121.744 267.357 118.713 266.427 116.847C266.004 115.874 265.366 115.011 264.562 114.321L265.169 114.848C265.352 115.046 265.557 115.309 265.806 115.617C266.065 115.998 266.297 116.397 266.501 116.81C267.452 118.677 268.169 121.73 268.498 125.669C268.823 130.472 268.788 135.293 268.395 140.091C267.936 146.446 267.148 152.773 266.032 159.046C264.708 166.001 263.106 173.586 261.248 181.742C260.326 185.798 259.339 189.985 258.256 194.29C257.173 198.595 255.996 203.003 254.598 207.469C253.918 209.747 253.075 211.974 252.075 214.131C251.936 214.402 251.775 214.665 251.628 214.929C251.461 215.192 251.267 215.437 251.05 215.661C250.587 216.076 250.076 216.434 249.529 216.73C248.461 217.316 247.334 217.843 246.23 218.326C241.716 220.266 236.998 221.921 232.184 223.575C222.542 226.848 212.476 229.974 202.14 233.093C196.829 234.689 191.576 236.234 186.616 237.654L186.455 237.705L174.356 209.497L174.283 209.321L174.466 209.255L216.895 193.28L216.792 193.419C217.074 191.37 217.864 189.425 219.089 187.76C220.187 186.165 221.453 184.692 222.864 183.367L222.82 183.492C222.596 181.486 222.372 179.533 222.147 177.635C221.957 175.765 221.957 173.881 222.147 172.012C222.323 170.244 222.674 168.498 223.193 166.799L224.532 162.004C226.266 155.817 227.758 150.473 228.98 146.102L231.818 136.035C232.14 134.886 232.396 134.015 232.55 133.414C232.703 132.814 232.879 132.448 232.879 132.448Z" fill="#263238"/>
<path d="M224.832 199.811C223.904 198.339 222.765 197.012 221.452 195.872C220.058 194.829 218.514 194.002 216.873 193.419C217.396 193.434 217.912 193.546 218.395 193.749C220.804 194.579 222.85 196.222 224.181 198.398C224.48 198.826 224.701 199.305 224.832 199.811Z" fill="#263238"/>
<path d="M238.292 188.433C238.234 188.477 237.685 187.621 236.515 186.508C234.996 185.05 233.152 183.976 231.136 183.373C229.119 182.771 226.988 182.659 224.92 183.045C223.332 183.338 222.403 183.777 222.374 183.689C222.569 183.548 222.783 183.437 223.011 183.36C223.613 183.116 224.234 182.922 224.869 182.781C226.979 182.312 229.173 182.39 231.245 183.008C233.316 183.625 235.196 184.762 236.705 186.31C237.161 186.775 237.575 187.28 237.941 187.818C238.086 188.006 238.204 188.213 238.292 188.433Z" fill="#263238"/>
<path d="M173.368 239.814C165.19 239.814 153.858 236.98 139.673 231.387C129.176 227.243 120.931 223.041 120.844 223.004L122.175 220.39C122.497 220.559 154.67 236.885 173.383 236.885C180.771 236.885 186.492 233.312 190.377 226.269C192.226 222.843 193.489 219.131 194.115 215.288C194.312 214.116 198.723 187.782 200.238 180.753C201.028 177.093 203.164 171.075 205.183 165.262C207.056 159.939 208.987 154.441 209.375 152.084C210.172 147.303 209.594 136.855 209.594 136.753L212.52 136.585C212.52 137.031 213.12 147.464 212.272 152.559C211.84 155.158 209.953 160.532 207.955 166.214C205.958 171.895 203.859 177.869 203.105 181.354C201.642 188.316 197.063 215.427 197.019 215.705C196.975 215.983 193.698 239.814 173.368 239.814Z" fill="#F68E18"/>
<path d="M173.368 239.814C165.19 239.814 153.858 236.98 139.673 231.387C129.176 227.243 120.931 223.041 120.844 223.004L122.175 220.39C122.497 220.559 154.67 236.885 173.383 236.885C180.771 236.885 186.492 233.312 190.377 226.269C192.226 222.843 193.489 219.131 194.115 215.288C194.312 214.116 198.723 187.782 200.238 180.753C201.028 177.093 203.164 171.075 205.183 165.262C207.056 159.939 208.987 154.441 209.375 152.084C210.172 147.303 209.594 136.855 209.594 136.753L212.52 136.585C212.52 137.031 213.12 147.464 212.272 152.559C211.84 155.158 209.953 160.532 207.955 166.214C205.958 171.895 203.859 177.869 203.105 181.354C201.642 188.316 197.063 215.427 197.019 215.705C196.975 215.983 193.698 239.814 173.368 239.814Z" fill="black"/>
<path d="M209.089 137.668C207.265 137.693 205.505 136.998 204.188 135.735C199.148 130.735 193.778 109.965 193.551 109.086L194.963 108.72C195.022 108.932 200.464 129.952 205.205 134.696C205.846 135.296 206.618 135.738 207.46 135.986C208.303 136.234 209.191 136.281 210.055 136.123C212.44 135.75 214.569 134.066 215.907 131.504C219.799 123.999 230.406 72.7582 230.538 72.2384L232.001 72.5386C231.562 74.6544 221.248 124.519 217.261 132.177C215.717 135.157 213.193 137.126 210.348 137.573C209.932 137.64 209.511 137.672 209.089 137.668Z" fill="#E0E0E0"/>
<path d="M229.953 76.4554C230.055 74.3982 229.558 72.7289 229.221 70.701C229.075 69.8444 229.346 68.3875 230.063 67.8896C230.779 67.3918 231.877 67.9994 232.184 68.8414C232.439 69.8262 232.487 70.8535 232.323 71.8577C231.994 74.2883 231.306 74.9985 230.911 76.4554" fill="#E0E0E0"/>
<path d="M209.814 138.078H209.36C207.751 138.013 206.188 137.517 204.836 136.641C203.483 135.765 202.39 134.542 201.672 133.1C199.821 129.439 197.407 124.505 196.419 121.803L199.162 120.8C199.894 122.799 201.715 126.701 204.283 131.782C204.77 132.762 205.511 133.593 206.428 134.188C207.346 134.783 208.407 135.12 209.499 135.164C210.573 135.227 211.643 134.999 212.599 134.504C213.554 134.01 214.358 133.266 214.927 132.353L215.008 132.221C215.066 132.111 215.322 131.489 216.222 128.912L216.324 128.619C216.851 127.155 217.956 123.831 219.433 118.369L222.257 119.101C220.757 124.688 219.624 128.085 219.075 129.607L218.98 129.886C217.868 133.048 217.67 133.488 217.517 133.729L217.4 133.92C216.593 135.201 215.472 136.255 214.145 136.983C212.818 137.71 211.327 138.087 209.814 138.078Z" fill="#F68E18"/>
<path d="M209.814 138.078H209.36C207.751 138.013 206.188 137.517 204.836 136.641C203.483 135.765 202.39 134.542 201.672 133.1C199.821 129.439 197.407 124.505 196.419 121.803L199.162 120.8C199.894 122.799 201.715 126.701 204.283 131.782C204.77 132.762 205.511 133.593 206.428 134.188C207.346 134.783 208.407 135.12 209.499 135.164C210.573 135.227 211.643 134.999 212.599 134.504C213.554 134.01 214.358 133.266 214.927 132.353L215.008 132.221C215.066 132.111 215.322 131.489 216.222 128.912L216.324 128.619C216.851 127.155 217.956 123.831 219.433 118.369L222.257 119.101C220.757 124.688 219.624 128.085 219.075 129.607L218.98 129.886C217.868 133.048 217.67 133.488 217.517 133.729L217.4 133.92C216.593 135.201 215.472 136.255 214.145 136.983C212.818 137.71 211.327 138.087 209.814 138.078Z" fill="black"/>
<path d="M116.242 226.13C120.153 226.13 123.324 222.957 123.324 219.043C123.324 215.129 120.153 211.956 116.242 211.956C112.331 211.956 109.161 215.129 109.161 219.043C109.161 222.957 112.331 226.13 116.242 226.13Z" fill="#E0E0E0"/>
<path d="M116.637 223.487C118.863 223.487 120.668 221.681 120.668 219.453C120.668 217.225 118.863 215.419 116.637 215.419C114.411 215.419 112.606 217.225 112.606 219.453C112.606 221.681 114.411 223.487 116.637 223.487Z" fill="#263238"/>
<path d="M111.78 226.13C111.78 226.13 110.229 222.47 111.78 221.137C113.331 219.805 129.556 215.419 129.556 215.419C129.556 215.419 140.998 212.11 142.219 211.956C143.441 211.803 158.313 212.798 158.313 212.798C158.313 212.798 166.755 210.47 167.977 210.47C169.198 210.47 167.421 218.245 167.201 220.808C166.982 223.37 165.314 224.9 166.865 226.13C168.416 227.36 172.542 230.823 172.542 230.823C172.542 230.823 168.196 232.031 165.226 231.702C163.462 231.514 161.736 231.063 160.105 230.362C160.105 230.362 153.997 234.923 150.661 235.589C147.325 236.256 136.228 239.923 134.004 239.594C131.78 239.265 130.12 236.256 130.12 236.256C130.12 236.256 124.896 237.032 123.894 234.923C123.315 233.716 122.869 232.449 122.563 231.145L124.677 229.806C124.677 229.806 121.897 230.589 120.675 228.583C119.977 227.514 119.523 226.304 119.344 225.039C119.344 225.039 113.638 226.679 111.78 226.13Z" fill="#455A64"/>
<path d="M195.154 159.266C195.151 159.41 195.129 159.552 195.088 159.69C195.024 160.003 194.936 160.405 194.824 160.898C194.707 161.418 194.561 162.055 194.429 162.802C194.298 163.549 194.107 164.398 193.99 165.35C193.873 166.301 193.69 167.326 193.588 168.446C193.486 169.567 193.383 170.76 193.295 172.019C193.013 177.497 193.433 182.989 194.546 188.36C194.824 189.597 195.073 190.769 195.38 191.852C195.688 192.936 195.966 193.939 196.251 194.854C196.536 195.769 196.829 196.582 197.077 197.299C197.326 198.017 197.553 198.624 197.758 199.122C197.963 199.62 198.087 199.972 198.197 200.272C198.261 200.404 198.306 200.544 198.328 200.689C198.252 200.565 198.186 200.436 198.131 200.301L197.619 199.181C197.399 198.69 197.136 198.09 196.887 197.373C196.639 196.655 196.295 195.857 196.009 194.935C195.724 194.012 195.373 193.024 195.088 191.933C194.802 190.842 194.51 189.671 194.224 188.433C193.656 185.738 193.258 183.009 193.032 180.263C192.837 177.514 192.813 174.756 192.959 172.005C193.054 170.738 193.127 169.53 193.288 168.41C193.449 167.29 193.573 166.25 193.734 165.306C193.895 164.361 194.085 163.505 194.239 162.758C194.393 162.011 194.554 161.382 194.7 160.862L195.029 159.668C195.053 159.529 195.094 159.394 195.154 159.266Z" fill="#263238"/>
</svg>
